{
	"asset":{
		"generator":"Khronos glTF Blender I/O v5.0.21",
		"version":"2.0"
	},
	"extensionsUsed":[
		"KHR_materials_specular"
	],
	"scene":0,
	"scenes":[
		{
			"name":"Scene",
			"nodes":[
				0
			]
		}
	],
	"nodes":[
		{
			"mesh":0,
			"name":"staff",
			"rotation":[
				0,
				0,
				0.0033602535258978605,
				0.9999944567680359
			],
			"scale":[
				1.0213799476623535,
				1,
				1.0213810205459595
			],
			"translation":[
				-0.021291272714734077,
				0.002838835818693042,
				0
			]
		}
	],
	"materials":[
		{
			"doubleSided":true,
			"emissiveFactor":[
				1,
				1,
				1
			],
			"emissiveTexture":{
				"index":0
			},
			"extensions":{
				"KHR_materials_specular":{
					"specularTexture":{
						"index":1
					}
				}
			},
			"name":"Atlas  Tile Wrap",
			"normalTexture":{
				"index":2
			},
			"pbrMetallicRoughness":{
				"baseColorTexture":{
					"index":3
				},
				"metallicRoughnessTexture":{
					"index":4
				}
			}
		}
	],
	"meshes":[
		{
			"name":"Icosphere.020",
			"primitives":[
				{
					"attributes":{
						"POSITION":0,
						"NORMAL":1,
						"TEXCOORD_0":2,
						"TEXCOORD_1":3,
						"COLOR_0":4,
						"COLOR_1":5
					},
					"indices":6,
					"material":0
				}
			]
		}
	],
	"textures":[
		{
			"sampler":0,
			"source":0
		},
		{
			"sampler":0,
			"source":1
		},
		{
			"sampler":0,
			"source":2
		},
		{
			"sampler":0,
			"source":3
		},
		{
			"sampler":0,
			"source":4
		}
	],
	"images":[
		{
			"mimeType":"image/jpeg",
			"name":"Material",
			"uri":"textures/Material.jpg"
		},
		{
			"mimeType":"image/png",
			"name":"specular",
			"uri":"textures/specular.png"
		},
		{
			"mimeType":"image/jpeg",
			"name":"MaterialNormal",
			"uri":"textures/MaterialNormal.jpg"
		},
		{
			"mimeType":"image/jpeg",
			"name":"Material",
			"uri":"textures/Material-1.jpg"
		},
		{
			"mimeType":"image/png",
			"name":"metallic-roughness",
			"uri":"textures/metallic-roughness.png"
		}
	],
	"accessors":[
		{
			"bufferView":0,
			"componentType":5126,
			"count":14248,
			"max":[
				0.6938239932060242,
				3.9449756145477295,
				0.4674338698387146
			],
			"min":[
				-0.40344396233558655,
				-3.724783182144165,
				-0.459734171628952
			],
			"type":"VEC3"
		},
		{
			"bufferView":1,
			"componentType":5126,
			"count":14248,
			"type":"VEC3"
		},
		{
			"bufferView":2,
			"componentType":5126,
			"count":14248,
			"type":"VEC2"
		},
		{
			"bufferView":3,
			"componentType":5126,
			"count":14248,
			"type":"VEC2"
		},
		{
			"bufferView":4,
			"componentType":5121,
			"count":14248,
			"normalized":true,
			"type":"VEC4"
		},
		{
			"bufferView":5,
			"componentType":5123,
			"count":14248,
			"normalized":true,
			"type":"VEC4"
		},
		{
			"bufferView":6,
			"componentType":5123,
			"count":17184,
			"type":"SCALAR"
		}
	],
	"bufferViews":[
		{
			"buffer":0,
			"byteLength":170976,
			"byteOffset":0,
			"target":34962
		},
		{
			"buffer":0,
			"byteLength":170976,
			"byteOffset":170976,
			"target":34962
		},
		{
			"buffer":0,
			"byteLength":113984,
			"byteOffset":341952,
			"target":34962
		},
		{
			"buffer":0,
			"byteLength":113984,
			"byteOffset":455936,
			"target":34962
		},
		{
			"buffer":0,
			"byteLength":56992,
			"byteOffset":569920,
			"target":34962
		},
		{
			"buffer":0,
			"byteLength":113984,
			"byteOffset":626912,
			"target":34962
		},
		{
			"buffer":0,
			"byteLength":34368,
			"byteOffset":740896,
			"target":34963
		}
	],
	"samplers":[
		{
			"magFilter":9728,
			"minFilter":9984
		}
	],
	"buffers":[
		{
			"byteLength":775264,
			"uri":"Staff.bin"
		}
	]
}
